<?xml version="1.0" encoding="iso-8859-1"?>
<!-- Generator: Adobe Illustrator 19.0.0, SVG Export Plug-In . SVG Version: 6.00 Build 0)  -->
<svg version="1.1" id="Capa_1" xmlns="http://www.w3.org/2000/svg" xmlns:xlink="http://www.w3.org/1999/xlink" x="0px" y="0px"
	 viewBox="0 0 415.142 415.142" style="enable-background:new 0 0 415.142 415.142;" xml:space="preserve">
<g>
	<g>
		<path d="M412.81,216.8l-20.24-39.2v-67.76c0-4.418-3.582-8-8-8H278.49L277.93,88c0-4.418-3.582-8-8-8h-42.64V8
			c0-4.418-3.582-8-8-8H109.37c-4.418,0-8,3.582-8,8v155.2H9.29c-4.417,0.088-7.927,3.74-7.84,8.157
			c0.033,1.677,0.593,3.301,1.6,4.643l39.52,49.76l3.52,31.12c0.214,1.975,1.155,3.8,2.64,5.12l37.92,33.36
			c3.321,2.914,8.376,2.583,11.29-0.738c0.26-0.296,0.497-0.611,0.71-0.942l16-24l30.72,1.2l66.24,75.52v34.16
			c-0.008,3.125,1.804,5.968,4.64,7.28l57.6,26.56c4.01,1.856,8.765,0.11,10.62-3.9c0.49-1.059,0.743-2.213,0.74-3.38v-66.4
			l21.84-28.32l24-1.28c2.117-0.114,4.102-1.063,5.52-2.64l75.04-82.64C413.856,223.372,414.334,219.769,412.81,216.8z
			 M211.29,322.08l-56.48-64c-1.442-1.645-3.494-2.628-5.68-2.72l-38.64-1.52c-2.72,0.005-5.251,1.391-6.72,3.68l-13.12,20.24
			l-28.64-25.2l-3.44-30.32c-0.167-1.491-0.749-2.904-1.68-4.08L25.85,179.2h83.52c4.418,0,8-3.582,8-8V17.04h93.92V322.08z
			 M227.29,96.64h34.96l0.56,13.6c0,4.418,3.582,8,8,8h105.76V172H227.29V96.64z M327.05,295.36l-24.8,1.36
			c-2.334,0.125-4.497,1.265-5.92,3.12l-25.76,33.36c-1.084,1.396-1.674,3.112-1.68,4.88v56.48l-41.6-19.2V187.6h152l16.4,32
			L327.05,295.36z"/>
	</g>
</g>
<g>
	<g>
		<path d="M198.144,170.048c-1.232-1.28-2.856-2.113-4.614-2.368l-15.12-2.16l-6.72-13.68c-1.971-3.954-6.774-5.562-10.729-3.591
			c-1.555,0.775-2.816,2.036-3.591,3.591l-6.72,13.68l-15.12,1.84c-4.372,0.634-7.403,4.693-6.768,9.066
			c0.255,1.758,1.088,3.382,2.368,4.614l10.88,10.96l-2.56,15.04c-0.724,4.359,2.222,8.479,6.58,9.203
			c1.716,0.285,3.478,0.003,5.02-0.803l13.52-7.44l13.52,7.12c3.915,2.048,8.749,0.534,10.797-3.38
			c0.806-1.541,1.088-3.304,0.803-5.02L187.05,192l10.88-10.64C201.112,178.295,201.208,173.231,198.144,170.048z M172.809,183.44
			c-1.905,1.843-2.774,4.509-2.32,7.12l0.56,3.2l-2.8-1.76c-2.329-1.223-5.111-1.223-7.44,0l-2.88,1.52l0.56-3.2
			c0.454-2.611-0.415-5.277-2.32-7.12l-2.32-2.24l3.2-0.24c2.602-0.391,4.845-2.036,6-4.4l1.44-2.88l1.44,2.88
			c1.155,2.364,3.398,4.009,6,4.4l3.2,0.48L172.809,183.44z"/>
	</g>
</g>
<g>
</g>
<g>
</g>
<g>
</g>
<g>
</g>
<g>
</g>
<g>
</g>
<g>
</g>
<g>
</g>
<g>
</g>
<g>
</g>
<g>
</g>
<g>
</g>
<g>
</g>
<g>
</g>
<g>
</g>
</svg>
